Coordinates
version=1
nRows=4
nColumns=60
inDegrees=yes

Units are S.I. units (second, meters, Newtons, ...)
If the header above contains a line with 'inDegrees', this indicates whether rotational values are in degrees (yes) or radians (no).

endheader
time	pelvis_tilt	pelvis_list	pelvis_rotation	pelvis_tx	pelvis_ty	pelvis_tz	hip_flexion_r	hip_adduction_r	hip_rotation_r	knee_angle_r_beta	knee_angle_r	ankle_angle_r	subtalar_angle_r	mtp_angle_r	hip_flexion_l	hip_adduction_l	hip_rotation_l	knee_angle_l_beta	knee_angle_l	ankle_angle_l	subtalar_angle_l	mtp_angle_l	L5_S1_Flex_Ext	L5_S1_Lat_Bending	L5_S1_axial_rotation	L4_L5_Flex_Ext	L4_L5_Lat_Bending	L4_L5_axial_rotation	L3_L4_Flex_Ext	L3_L4_Lat_Bending	L3_L4_axial_rotation	L2_L3_Flex_Ext	L2_L3_Lat_Bending	L2_L3_axial_rotation	L1_L2_Flex_Ext	L1_L2_Lat_Bending	L1_L2_axial_rotation	L1_T12_Flex_Ext	L1_T12_Lat_Bending	L1_T12_axial_rotation	Abs_r3	Abs_r2	Abs_r1	Abs_t1	Abs_t2	arm_flex_r	arm_add_r	arm_rot_r	elbow_flex_r	pro_sup_r	wrist_flex_r	wrist_dev_r	arm_flex_l	arm_add_l	arm_rot_l	elbow_flex_l	pro_sup_l	wrist_flex_l	wrist_dev_l
     99.48000000	     -0.77995454	     10.41467475	     92.41437140	      0.40324215	      0.94286618	      0.27432739	      0.36100662	     -5.69349648	     -1.14509008	      0.33241730	    -19.04610838	     10.17187464	      0.00000000	      0.00000000	     -0.56852436	     -5.02647822	     -3.05972954	      0.25918311	    -14.85009834	      9.25396502	      0.00000000	      0.00000000	     -6.04303597	     -0.07808295	     -0.04231257	    -11.22252211	     -0.10385032	     -0.04495711	     -9.92810380	     -0.18985088	     -0.04495711	     -6.90658582	     -0.18985088	     -0.03702350	     -5.61156321	     -0.15922675	     -0.03437897	     -3.45299076	     -0.12095049	     -0.03173443	    -43.16480166	     -0.88328992	     -0.23532985	      0.00000000	      0.00000000	     57.84900512	    -28.25949210	     21.37672363	     61.06798183	     57.75302736	      5.59878629	     27.26126355	     66.61699521	    -21.47502755	     34.39711650	     52.25473175	     55.01882363	      5.61861382	     23.69493305
     99.49000000	     -0.78849603	     10.12647125	     92.25981066	      0.40308852	      0.94273128	      0.27589995	      0.77126693	     -5.73691896	     -0.93817045	      0.33074968	    -18.95056053	      9.92104814	      0.00000000	      0.00000000	     -0.24283118	     -4.96223457	     -3.13281667	      0.25673582	    -14.70987876	      8.99470352	      0.00000000	      0.00000000	     -6.06576746	     -0.08193470	     -0.03905811	    -11.26473675	     -0.10897315	     -0.04149924	     -9.96544936	     -0.19921603	     -0.04149924	     -6.93256563	     -0.19921603	     -0.03417584	     -5.63267166	     -0.16708124	     -0.03173471	     -3.46597953	     -0.12691685	     -0.02929358	    -43.32717040	     -0.92686173	     -0.21722947	      0.00000000	      0.00000000	     59.34193513	    -27.78299852	     21.97449830	     59.57653159	     57.65770297	      5.61119667	     26.67785684	     68.07772624	    -21.12932830	     35.21865028	     50.59609826	     54.79849240	      5.65947382	     23.26262159
     99.50000000	     -0.75345688	      9.82329423	     92.10990349	      0.40291224	      0.94255731	      0.27744551	      1.18419468	     -5.72443541	     -0.69881125	      0.32873786	    -18.83529197	      9.71032667	      0.00000000	      0.00000000	      0.08346669	     -4.94633763	     -3.20356089	      0.25387959	    -14.54622917	      8.83203817	      0.00000000	      0.00000000	     -6.08670322	     -0.07936969	     -0.03198772	    -11.30361654	     -0.10556169	     -0.03398696	     -9.99984471	     -0.19297947	     -0.03398696	     -6.95649311	     -0.19297947	     -0.02798926	     -5.65211261	     -0.16185068	     -0.02599002	     -3.47794222	     -0.12294366	     -0.02399079	    -43.47671240	     -0.89784585	     -0.17790612	      0.00000000	      0.00000000	     60.85713465	    -27.59295609	     23.22330689	     58.21480012	     55.77932280	      5.87634520	     24.74652933	     69.58517467	    -20.97403698	     36.67697864	     49.14955027	     52.82809462	      5.97955806	     21.72911496
     99.51000000	     -0.72604674	      9.48859455	     91.88993933	      0.40288003	      0.94241642	      0.27892850	      1.64204145	     -5.71265608	     -0.44253073	      0.32655421	    -18.71017825	      9.49654613	      0.00000000	      0.00000000	      0.42636651	     -4.92028518	     -3.20908330	      0.25117715	    -14.39139070	      8.64273043	      0.00000000	      0.00000000	     -6.11804557	     -0.08077335	     -0.01213190	    -11.36182244	     -0.10742855	     -0.01289015	    -10.05133707	     -0.19639232	     -0.01289015	     -6.99231429	     -0.19639232	     -0.01061541	     -5.68121712	     -0.16471301	     -0.00985717	     -3.49585124	     -0.12511792	     -0.00909893	    -43.70058774	     -0.91372427	     -0.06747400	      0.00000000	      0.00000000	     62.18124858	    -27.32514012	     23.78087418	     57.19185293	     56.70317036	      5.84821373	     24.63469614	     70.84840269	    -20.89160421	     37.55354187	     48.30732606	     53.63450794	      5.90767866	     21.64374907
